<svg width="31" height="32" viewBox="0 0 31 32" fill="none" xmlns="http://www.w3.org/2000/svg">
<path fill-rule="evenodd" clip-rule="evenodd" d="M5.29414 5.60311C6.29344 6.41105 6.65488 6.34727 8.5259 6.2197L26.1518 5.15662C26.5345 5.15662 26.2156 4.77391 26.088 4.73138L23.1539 2.62649C22.6011 2.20125 21.8357 1.69097 20.4111 1.81854L3.35933 3.07298C2.74275 3.13676 2.61518 3.45569 2.87032 3.68957L5.29414 5.60311ZM6.35722 9.7066V28.2467C6.35722 29.246 6.84624 29.6075 7.9731 29.5437L27.3424 28.4168C28.4693 28.353 28.5969 27.6727 28.5969 26.8647V8.45216C28.5969 7.64422 28.2779 7.19773 27.5976 7.26151L7.35651 8.45216C6.61236 8.51595 6.35722 8.89866 6.35722 9.7066ZM25.4714 10.7059C25.599 11.2587 25.4714 11.8328 24.9186 11.8965L23.9831 12.0879V25.7804C23.1751 26.2056 22.431 26.4607 21.7931 26.4607C20.7938 26.4607 20.5387 26.1418 19.7946 25.2063L13.6925 15.6173V24.8874L15.6273 25.3126C15.6273 25.3126 15.6273 26.4395 14.0752 26.4395L9.78034 26.6946C9.65277 26.4395 9.78034 25.8229 10.2056 25.6953L11.3324 25.3764V13.1297L9.78034 13.0021C9.65277 12.4493 9.97169 11.6414 10.8434 11.5776L15.4572 11.2587L21.8144 20.954V12.3856L20.1985 12.1942C20.071 11.5138 20.5812 11.0036 21.1978 10.9398L25.4714 10.7059ZM1.93481 1.37205L19.6882 0.0750916C21.8569 -0.116263 22.431 0.0113072 23.7917 1.0106L29.4473 4.98652C30.3828 5.66689 30.7018 5.85825 30.7018 6.60241V28.4381C30.7018 29.7988 30.2127 30.6068 28.4693 30.7343L7.8668 31.9888C6.54858 32.0525 5.93199 31.8612 5.25162 30.9895L1.06308 25.5678C0.318924 24.5685 0 23.8243 0 22.9526V3.54073C0 2.41387 0.510278 1.49962 1.93481 1.37205Z" fill="black"/>
</svg>
