<svg width="28" height="28" viewBox="0 0 28 28" fill="none" xmlns="http://www.w3.org/2000/svg">
<rect width="28" height="28" rx="5" fill="black"/>
<path d="M15.9991 6.97771C18.0438 6.97771 18.8428 7.4751 19.4303 9.74887H20.2764V5.79346H8.69019V6.76455C9.23072 6.81192 9.86526 6.8356 10.0768 6.90666C10.5233 7.04877 10.7113 7.38036 10.7113 8.09091V19.9098C10.7113 20.5967 10.5468 20.9519 10.0768 21.0941C9.81825 21.1888 9.01921 21.2125 8.69019 21.2362V22.2073H15.1766V21.2362C14.636 21.1888 14.0015 21.1651 13.79 21.0941C13.3435 20.9519 13.1555 20.6203 13.1555 19.9098V14.7938H15.5056C16.1871 14.7938 16.5397 14.9596 16.6807 15.4333C16.7747 15.6938 16.7982 16.4991 16.8217 16.8307H17.7852V11.5726H16.8217C16.7747 12.1174 16.7512 12.7569 16.6807 12.9701C16.5397 13.4201 16.2106 13.6095 15.5056 13.6095H13.1555V6.97771H15.9991Z" fill="white"/>
</svg>
