<svg width="34" height="26" viewBox="0 0 34 26" fill="none" xmlns="http://www.w3.org/2000/svg">
<path d="M28.8263 2.15366C32.6662 7.71079 34.5625 13.9791 33.8536 21.1953C33.8506 21.2258 33.8345 21.2539 33.809 21.2723C30.9011 23.374 28.0838 24.6495 25.306 25.4953C25.2844 25.5018 25.2613 25.5015 25.2398 25.4943C25.2184 25.4872 25.1998 25.4737 25.1866 25.4556C24.5449 24.5767 23.9618 23.6501 23.4509 22.677C23.4216 22.6197 23.4484 22.5507 23.5087 22.5281C24.4348 22.1847 25.3154 21.773 26.1624 21.2857C26.2291 21.2472 26.2334 21.1531 26.1718 21.1079C25.992 20.9765 25.8139 20.8385 25.6435 20.7004C25.6116 20.6749 25.5687 20.6699 25.5326 20.687C20.0335 23.1866 14.0096 23.1866 8.44546 20.687C8.40934 20.6711 8.36641 20.6766 8.33539 20.7017C8.16539 20.8397 7.98689 20.9765 7.80881 21.1079C7.74719 21.1531 7.75229 21.2472 7.81944 21.2857C8.66646 21.7638 9.54706 22.1847 10.4719 22.5298C10.5318 22.5524 10.5603 22.6197 10.5305 22.677C10.0307 23.6513 9.44761 24.5779 8.79396 25.4569C8.76548 25.4924 8.71873 25.5087 8.67453 25.4953C5.90991 24.6495 3.09259 23.374 0.184748 21.2723C0.160523 21.2539 0.143098 21.2246 0.140548 21.1941C-0.451901 14.9521 0.755522 8.63196 5.16319 2.15241C5.17381 2.13526 5.18996 2.12187 5.20866 2.11392C7.37744 1.13419 9.70091 0.413402 12.1294 0.00176349C12.1736 -0.00492983 12.2178 0.0151501 12.2407 0.0536367C12.5408 0.576552 12.8837 1.24714 13.1158 1.79515C15.6755 1.41029 18.2753 1.41029 20.8886 1.79515C21.1206 1.25885 21.4517 0.576552 21.7505 0.0536367C21.7611 0.0345439 21.7776 0.0192478 21.7976 0.00993216C21.8176 0.000616503 21.8401 -0.00224244 21.8618 0.00176349C24.2916 0.414657 26.615 1.13544 28.7821 2.11392C28.8012 2.12187 28.817 2.13526 28.8263 2.15366ZM14.4171 14.0217C14.4439 12.1765 13.0771 10.6496 11.3614 10.6496C9.65968 10.6496 8.30606 12.1631 8.30606 14.0217C8.30606 15.88 9.68646 17.3935 11.3614 17.3935C13.0635 17.3935 14.4171 15.88 14.4171 14.0217ZM25.7145 14.0217C25.7412 12.1765 24.3744 10.6496 22.6591 10.6496C20.957 10.6496 19.6034 12.1631 19.6034 14.0217C19.6034 15.88 20.9838 17.3935 22.6591 17.3935C24.3744 17.3935 25.7145 15.88 25.7145 14.0217Z" fill="#090909"/>
</svg>
