<svg width="512" height="512" viewBox="0 0 512 512" fill="none" xmlns="http://www.w3.org/2000/svg">
<path d="M133.915 104.48C116.836 107.922 101.56 117.868 91.8081 131.057C81.9436 144.188 76.6449 159.526 73.8321 174.96C71.0644 190.452 71.2899 206.148 72.1355 221.588C73.9336 252.725 80.8726 283.451 92.7044 312.689C98.6851 327.309 105.787 341.471 114.243 355.06C122.811 368.607 132.844 381.323 143.893 393.229C155.11 404.919 167.116 416.614 183.238 423.847C187.296 425.694 191.75 426.822 196.372 427.443C201.219 427.905 205.898 427.186 210.182 426.001C218.806 423.596 226.416 419.492 233.575 415.024C243.496 408.771 252.628 401.539 261.196 393.998C264.859 390.659 268.523 387.324 272.075 383.944C272.695 383.38 273.258 382.759 273.935 382.149C284.983 371.428 295.298 360.035 305.219 348.494C326.132 323.923 345.354 298.327 362.715 271.653C380.02 244.984 396.48 217.746 408.825 188.605C415.138 174.191 418.577 157.469 414.293 141.572C412.207 133.667 407.979 125.927 400.877 120.331C393.831 114.744 384.079 112.328 375.004 112.841C365.816 113.303 357.586 116.283 349.694 119.412C341.746 122.747 334.136 126.743 327.259 131.518C313.336 140.9 301.499 152.703 291.629 165.419C271.849 191.119 258.434 220.049 247.943 249.493C237.803 278.885 227.938 309.206 229.173 340.851C229.573 348.699 230.587 356.496 233.237 364.144C234.139 366.704 235.322 369.274 236.675 371.679C229.173 378.404 221.512 384.611 214.071 389.428C208.716 392.818 198.965 396.968 198.965 396.968C198.965 396.968 197.95 396.768 197.33 396.409C193.892 395.332 188.593 391.992 183.52 388.048C178.441 384.144 173.261 379.425 168.249 374.295C163.278 369.274 157.985 363.523 153.701 358.142C149.135 352.802 145.02 346.96 140.961 341.112C133.126 329.155 125.967 316.593 119.936 303.456C107.879 277.249 100.151 249.036 97.1067 220.306C96.0357 213.181 95.7031 205.794 95.2466 198.762C94.9647 191.837 95.1958 184.917 95.8666 178.146C97.3886 164.655 101.109 151.621 107.929 141.11C114.694 130.595 124.564 122.644 137.748 118.843C150.882 114.847 164.523 115.919 177.826 121.87C191.022 127.825 202.848 138.238 212.888 149.882C223.09 161.572 232.053 174.76 239.099 188.605L239.161 188.81C239.55 189.534 240.565 189.944 241.41 189.687C242.368 189.323 242.819 188.4 242.481 187.584C236.901 172.806 229.347 158.756 220.103 145.619C210.689 132.693 199.247 120.438 184.422 112.077C177.037 107.871 168.7 104.839 160.07 103.557C156.688 103.018 153.272 102.767 149.856 102.767C144.501 102.767 139.146 103.383 133.915 104.48ZM250.373 349.832C250.085 346.652 249.978 343.369 250.085 340.03C250.373 326.647 253.248 312.689 257.362 298.84C259.448 291.812 261.816 284.99 264.578 277.911C267.221 270.888 269.594 263.753 272.638 256.88L276.86 246.518L281.601 236.413C284.532 229.59 288.309 223.23 291.629 216.715C298.962 204.045 306.967 191.944 315.986 181.326C323.77 172.16 332.541 163.604 342.699 156.581C350.557 151.144 365.973 139.223 376.655 143.932C384.09 147.21 383.679 155.268 381.982 161.506C381.435 163.506 380.81 165.414 380.302 167.087C375.009 184.491 365.894 200.603 356.571 216.464C348.956 229.436 340.839 242.317 332.276 255.038C315.084 280.322 296.877 305.252 277.317 328.796C269.031 338.701 260.519 348.345 251.556 357.368C251.049 355.162 250.598 352.551 250.373 349.832Z" fill="url(#paint0_linear_2_8)"/>
<path d="M467.282 306.499L467.213 306.633C457.403 319.493 444.464 329.9 430.87 339.223C417.201 348.407 402.739 356.715 387.911 364.125C373.01 371.477 357.606 378.209 342.259 383.108C340.376 383.728 338.487 384.267 336.74 384.743C334.851 385.229 333.322 385.496 331.216 385.902C327.289 386.719 323.363 387.264 319.442 387.74C311.594 388.691 303.89 388.83 296.396 388.29C288.623 387.676 281.203 385.972 274.88 383.177C274.229 383.861 273.647 384.47 272.996 385.085C269.429 388.627 265.725 392.1 262.021 395.567C272.483 400.6 284.405 402.913 295.962 403.191C304.683 403.394 313.483 402.641 321.981 401.139C330.491 399.649 339.137 397.811 347.202 394.611C363.268 388.424 378.46 380.73 393.219 372.359C407.972 363.928 422.143 354.738 435.447 344.326C448.682 333.918 461.175 322.351 470.341 308.332C470.843 307.584 470.626 306.633 469.827 306.083C469.525 305.88 469.165 305.778 468.806 305.778C468.229 305.778 467.647 306.035 467.282 306.499Z" fill="url(#paint1_linear_2_8)"/>
<defs>
<linearGradient id="paint0_linear_2_8" x1="429.908" y1="265.175" x2="58.08" y2="265.175" gradientUnits="userSpaceOnUse">
<stop stop-color="#00FB8C"/>
<stop offset="0.0971267" stop-color="#64CCEB"/>
<stop offset="0.276683" stop-color="#64CCEB"/>
<stop offset="0.319606" stop-color="#64CCEB"/>
<stop offset="0.697546" stop-color="#0F39D9"/>
<stop offset="0.806149" stop-color="#0F39D9"/>
<stop offset="1" stop-color="#64CCEB"/>
</linearGradient>
<linearGradient id="paint1_linear_2_8" x1="424.583" y1="382.525" x2="312.641" y2="313.485" gradientUnits="userSpaceOnUse">
<stop stop-color="#00FB8C"/>
<stop offset="0.0958371" stop-color="#64CCEB"/>
<stop offset="0.477009" stop-color="#64CCEB"/>
<stop offset="0.646695" stop-color="#64CCEB"/>
<stop offset="1" stop-color="#0F39D9"/>
</linearGradient>
</defs>
</svg>
