<svg width="30" height="25" viewBox="0 0 30 25" fill="none" xmlns="http://www.w3.org/2000/svg">
<g clip-path="url(#clip0_682_12)">
<path d="M29.9998 2.96028C28.8975 3.45991 27.7099 3.8034 26.4675 3.95329C27.7403 3.17262 28.7148 1.93605 29.1715 0.462153C27.9839 1.18661 26.6624 1.71122 25.2616 1.99226C24.1411 0.768174 22.5394 0 20.7732 0C17.3749 0 14.6161 2.82913 14.6161 6.31401C14.6161 6.80739 14.6709 7.28828 14.7744 7.75044C9.65872 7.48813 5.12766 4.97127 2.08869 1.15538C1.55884 2.08594 1.25434 3.17262 1.25434 4.328C1.25434 6.52011 2.33838 8.44991 3.9949 9.58032C2.98393 9.54909 2.03996 9.2618 1.20562 8.79341C1.20562 8.81839 1.20562 8.84337 1.20562 8.87459C1.20562 11.9348 3.32498 14.4829 6.14471 15.0637C5.62705 15.2073 5.08503 15.2823 4.52474 15.2823C4.12888 15.2823 3.73911 15.2448 3.36761 15.1699C4.15324 17.6742 6.42486 19.5041 9.1167 19.5541C7.00951 21.2466 4.35422 22.2583 1.47358 22.2583C0.974191 22.2583 0.48698 22.2271 0.00585938 22.1709C2.72815 23.9633 5.9681 25.0062 9.43948 25.0062C20.761 25.0062 26.9547 15.3885 26.9547 7.04472C26.9547 6.76992 26.9486 6.49513 26.9364 6.22658C28.1362 5.33975 29.1776 4.22808 29.9998 2.96028Z" fill="black"/>
</g>
<defs>
<clipPath id="clip0_682_12">
<rect width="30" height="25" fill="white"/>
</clipPath>
</defs>
</svg>
