<svg width="43" height="63" viewBox="0 0 43 63" fill="none" xmlns="http://www.w3.org/2000/svg">
  <mask id="path-1-inside-1_1_169" fill="white">
    <path fill-rule="evenodd" clip-rule="evenodd"
      d="M31.6994 41.8043L42.0037 31.5L11.0908 0.587084L0.786546 10.8914L21.395 31.4998L0.785665 52.1091L11.09 62.4134L31.6993 41.8041L31.6994 41.8043Z" />
  </mask>
  <path
    d="M42.0037 31.5L42.7108 32.2071L43.4179 31.5L42.7108 30.7929L42.0037 31.5ZM31.6994 41.8043L30.9923 42.5114L31.6994 43.2185L32.4065 42.5114L31.6994 41.8043ZM11.0908 0.587084L11.7979 -0.120023L11.0908 -0.827129L10.3837 -0.120023L11.0908 0.587084ZM0.786546 10.8914L0.0794395 10.1843L-0.627667 10.8914L0.0794394 11.5985L0.786546 10.8914ZM21.395 31.4998L22.1021 32.2069L22.8092 31.4998L22.1021 30.7927L21.395 31.4998ZM0.785665 52.1091L0.0785587 51.402L-0.628548 52.1091L0.0785586 52.8162L0.785665 52.1091ZM11.09 62.4134L10.3829 63.1205L11.09 63.8276L11.7971 63.1205L11.09 62.4134ZM31.6993 41.8041L32.4064 41.097L31.6993 40.3899L30.9922 41.097L31.6993 41.8041ZM41.2966 30.7929L30.9923 41.0972L32.4065 42.5114L42.7108 32.2071L41.2966 30.7929ZM10.3837 1.29419L41.2966 32.2071L42.7108 30.7929L11.7979 -0.120023L10.3837 1.29419ZM1.49365 11.5985L11.7979 1.29419L10.3837 -0.120023L0.0794395 10.1843L1.49365 11.5985ZM22.1021 30.7927L1.49365 10.1843L0.0794394 11.5985L20.6879 32.2069L22.1021 30.7927ZM1.49277 52.8162L22.1021 32.2069L20.6879 30.7927L0.0785587 51.402L1.49277 52.8162ZM11.7971 61.7063L1.49277 51.402L0.0785586 52.8162L10.3829 63.1205L11.7971 61.7063ZM30.9922 41.097L10.3829 61.7063L11.7971 63.1205L32.4064 42.5112L30.9922 41.097ZM32.4065 41.0972L32.4064 41.097L30.9922 42.5112L30.9923 42.5114L32.4065 41.0972Z"
    fill="#01FF85" mask="url(#path-1-inside-1_1_169)" />
</svg>