<svg width="88" height="60" viewBox="0 0 88 60" fill="none" xmlns="http://www.w3.org/2000/svg">
<path d="M56.2484 12.5246C56.2484 14.1693 55.9249 15.7979 55.2965 17.3175C54.6681 18.837 53.747 20.2177 52.5859 21.3807C51.4247 22.5438 50.0462 23.4663 48.5291 24.0957C47.0119 24.7251 45.3859 25.0491 43.7438 25.0491C42.1016 25.0491 40.4756 24.7251 38.9585 24.0957C37.4413 23.4663 36.0628 22.5438 34.9017 21.3807C33.7405 20.2177 32.8194 18.837 32.191 17.3175C31.5626 15.7979 31.2391 14.1693 31.2391 12.5246C31.2391 9.20284 32.5566 6.01717 34.9017 3.66836C37.2467 1.31955 40.4273 0 43.7438 0C47.0602 0 50.2408 1.31955 52.5859 3.66836C54.9309 6.01717 56.2484 9.20284 56.2484 12.5246Z" fill="black"/>
<path d="M65.022 41.7645C62.9821 37.8824 59.922 34.6324 56.1723 32.3654C52.4226 30.0984 48.1258 28.9006 43.7459 28.9014C39.3659 28.901 35.069 30.0993 31.3193 32.3666C27.5696 34.634 24.5096 37.8843 22.4698 41.7666C24.9647 43.065 27.0559 45.0244 28.5155 47.4313C29.975 49.8381 30.7469 52.6001 30.7471 55.4161V59.7274H56.7469V55.414C56.7471 52.5982 57.5187 49.8365 58.9779 47.4297C60.437 45.0229 62.5276 43.0633 65.022 41.7645Z" fill="black"/>
<path d="M65.0222 41.7646C62.5278 43.0635 60.4372 45.0231 58.9781 47.4299C57.519 49.8367 56.7473 52.5984 56.7471 55.4142V59.7276H67.7905V52.9842C67.7905 48.9322 66.785 45.116 65.0222 41.7668" fill="black"/>
<path d="M22.4698 41.7649C20.2802 40.6169 17.845 40.0184 15.3735 40.0207C13.3549 40.0204 11.356 40.4184 9.49099 41.1918C7.62594 41.9653 5.93125 43.0991 4.50369 44.5285C3.07612 45.958 1.94364 47.655 1.1709 49.5228C0.398152 51.3907 0.000280926 53.3926 0 55.4144C0 57.7929 1.92543 59.7257 4.30442 59.7257H19.7015V52.9824C19.7015 48.9304 20.7048 45.1141 22.4698 41.7649Z" fill="#02FF87"/>
<path d="M22.4698 41.7646C20.6468 45.2223 19.6964 49.0742 19.7014 52.9842V59.7276H30.7449V55.4142C30.7447 52.5984 29.973 49.8367 28.5139 47.4299C27.0547 45.0231 24.9641 43.0635 22.4698 41.7646Z" fill="#3A3A3A"/>
<path d="M23.3663 29.2018C23.3836 30.2642 23.1897 31.3195 22.7958 32.3061C22.4018 33.2928 21.8158 34.191 21.0718 34.9485C20.3278 35.706 19.4407 36.3076 18.4622 36.7182C17.4837 37.1289 16.4334 37.3403 15.3725 37.3403C14.3116 37.3403 13.2613 37.1289 12.2828 36.7182C11.3044 36.3076 10.4173 35.706 9.67327 34.9485C8.92926 34.191 8.34321 33.2928 7.94928 32.3061C7.55534 31.3195 7.3614 30.2642 7.37876 29.2018C7.41307 27.101 8.27036 25.0979 9.76575 23.6244C11.2611 22.151 13.2748 21.3252 15.3725 21.3252C17.4702 21.3252 19.4839 22.151 20.9793 23.6244C22.4747 25.0979 23.332 27.101 23.3663 29.2018Z" fill="#02FF87"/>
</svg>
