<svg width="43" height="42" viewBox="0 0 43 42" fill="none" xmlns="http://www.w3.org/2000/svg">
<circle cx="21.4878" cy="21" r="21" fill="white"/>
<g clip-path="url(#clip0_770_47)">
<path d="M35.3116 12.9125C34.333 13.3629 33.2786 13.6725 32.1756 13.8076C33.3057 13.1039 34.1708 11.9892 34.5763 10.6605C33.5219 11.3136 32.3486 11.7865 31.1051 12.0398C30.1102 10.9364 28.6882 10.2439 27.1202 10.2439C24.1032 10.2439 21.6539 12.7943 21.6539 15.9357C21.6539 16.3805 21.7026 16.814 21.7945 17.2306C17.2527 16.9942 13.23 14.7253 10.532 11.2854C10.0616 12.1243 9.79127 13.1039 9.79127 14.1454C9.79127 16.1215 10.7537 17.8612 12.2243 18.8802C11.3268 18.852 10.4887 18.5931 9.74801 18.1708C9.74801 18.1933 9.74801 18.2159 9.74801 18.244C9.74801 21.0027 11.6296 23.2997 14.133 23.8233C13.6734 23.9528 13.1922 24.0203 12.6947 24.0203C12.3433 24.0203 11.9973 23.9865 11.6674 23.919C12.3649 26.1766 14.3817 27.8261 16.7715 27.8712C14.9007 29.3969 12.5434 30.3089 9.98591 30.3089C9.54255 30.3089 9.11 30.2808 8.68286 30.2301C11.0997 31.8459 13.9762 32.7861 17.0581 32.7861C27.1094 32.7861 32.6082 24.116 32.6082 16.5945C32.6082 16.3467 32.6028 16.099 32.592 15.8569C33.6571 15.0575 34.5817 14.0554 35.3116 12.9125Z" fill="#5AA6FF"/>
</g>
<defs>
<clipPath id="clip0_770_47">
<rect width="26.6341" height="22.5366" fill="white" transform="translate(7.65851 10.2439)"/>
</clipPath>
</defs>
</svg>
