<svg width="111" height="82" viewBox="0 0 111 82" fill="none" xmlns="http://www.w3.org/2000/svg">
<path d="M3.56274 9.30939H59.3595V76.8287H3.56274V9.30939Z" fill="#02FF87"/>
<path d="M56.429 69.8183C56.429 69.8183 68.4962 65.7959 81.4254 65.7959C90.4472 65.7959 99.354 67.2899 107.859 70.2206C107.859 70.2206 108.146 78.8975 107.916 81.311C106.767 81.9431 96.0786 72.5766 81.4254 72.4042C68.4962 72.2892 56.429 78.7251 56.429 78.7251V69.8183Z" fill="#02FF87"/>
<path d="M56.429 9.30934C56.429 9.30934 68.4962 1.20703 81.368 1.20703C96.251 1.20703 109.295 14.4236 109.295 14.4236V79.0122C109.295 79.0122 96.251 68.7263 81.4255 68.7263C68.4962 68.7263 56.429 76.8286 56.429 76.8286V9.30934Z" fill="#F1F0EC"/>
<path d="M0.63208 12.987L4.30973 9.30939V75.3921L0.63208 79.0697V12.987Z" fill="black"/>
<path d="M59.3595 75.3916L57.8654 79.0692H0.63208L2.81568 75.3916H59.3595ZM9.42395 20.3418H21.8935V23.2724H9.42395V20.3418ZM9.42395 40.8562H21.8935V43.7868H9.42395V40.8562ZM9.42395 26.203H42.4653V29.1337H9.42395V26.203ZM9.42395 32.0643H42.4653V34.9949H9.42395V32.0643Z" fill="black"/>
<path d="M65.9678 16.664C65.9678 16.664 72.5186 12.9863 80.2761 12.9863C89.0105 12.9863 99.0091 16.664 99.0091 16.664V19.5946C99.0091 19.5946 88.9531 15.917 80.2186 15.917C72.5186 15.917 65.9678 19.5946 65.9678 19.5946V16.664ZM65.9678 24.0193C65.9678 24.0193 72.5186 20.3416 80.2761 20.3416C89.0105 20.3416 99.0091 24.0193 99.0091 24.0193V26.9499C99.0091 26.9499 88.9531 23.2722 80.2186 23.2722C72.5186 23.2722 65.9678 26.9499 65.9678 26.9499V24.0193ZM65.9678 31.3171C65.9678 31.3171 72.5186 27.6394 80.2761 27.6394C89.0105 27.6394 99.0091 31.3171 99.0091 31.3171V34.2477C99.0091 34.2477 88.9531 30.5701 80.2186 30.5701C72.5186 30.5701 65.9678 34.2477 65.9678 34.2477V31.3171ZM65.9678 38.6724C65.9678 38.6724 72.5186 34.9947 80.2761 34.9947C89.0105 34.9947 99.0091 38.6724 99.0091 38.6724V41.603C99.0091 41.603 88.9531 37.9254 80.2186 37.9254C72.5186 37.9254 65.9678 41.603 65.9678 41.603V38.6724ZM65.9678 46.0277C65.9678 46.0277 72.5186 42.35 80.2761 42.35C89.0105 42.35 99.0091 46.0277 99.0091 46.0277V48.9583C99.0091 48.9583 88.9531 45.2807 80.2186 45.2807C72.5186 45.2807 65.9678 48.9583 65.9678 48.9583V46.0277ZM65.9678 53.383C65.9678 53.383 72.5186 49.7053 80.2761 49.7053C89.0105 49.7053 99.0091 53.383 99.0091 53.383V56.3136C99.0091 56.3136 88.9531 52.6359 80.2186 52.6359C72.5186 52.6359 65.9678 56.3136 65.9678 56.3136V53.383Z" fill="black"/>
</svg>
