<svg width="156" height="24" viewBox="0 0 156 24" fill="none" xmlns="http://www.w3.org/2000/svg">
<path fill-rule="evenodd" clip-rule="evenodd" d="M151.173 2.7957L148.76 0.382202L141.519 7.62269L143.933 10.0362L148.759 5.20964L153.586 10.0369L156 7.62337L151.173 2.79614L151.173 2.7957Z" fill="#00FF85"/>
<path fill-rule="evenodd" clip-rule="evenodd" d="M25.3866 23.4964H20.9781V0H25.3866V23.4964ZM4.40853 3.58995V10.589H9.72381C12.2115 10.589 13.3136 9.05755 13.3136 7.10521C13.3136 5.08988 12.2115 3.58995 9.72381 3.58995H4.40853ZM9.91275 0.000150133C15.203 0.000150133 17.8481 3.29498 17.8481 7.10521C17.8481 10.4431 15.5809 14.1473 9.91275 14.1473H4.40853V23.4964H0V0.000150133H9.91275ZM28.6086 14.7109C28.6086 20.1585 32.1355 23.7798 36.544 23.7798C39.3151 23.7798 41.2989 22.4573 42.3381 20.9458V23.4964H46.7781V6.05126H42.3381V8.53894C41.2989 7.09042 39.378 5.76786 36.5755 5.76786C32.1355 5.76786 28.6086 9.26318 28.6086 14.7109ZM42.3381 14.7738C42.3381 18.0802 40.1338 19.9066 37.7091 19.9066C35.3474 19.9066 33.1116 18.0173 33.1116 14.7109C33.1116 11.4045 35.3474 9.64107 37.7091 9.64107C40.1338 9.64107 42.3381 11.4674 42.3381 14.7738ZM67.7102 23.4964H63.3017V13.8606C63.3017 11.0581 61.7587 9.5466 59.4285 9.5466C57.0353 9.5466 55.4923 11.0581 55.4923 13.8606V23.4964H51.0838V6.05126H55.4923V8.22404C56.6259 6.74404 58.5153 5.79935 60.751 5.79935C64.8132 5.79935 67.7102 8.44446 67.7102 13.2623V23.4964ZM70.7689 14.7738C70.7689 20.253 74.3587 23.7798 79.397 23.7798C82.6774 23.7798 85.3231 22.3802 86.8294 20.0956L83.1054 17.7686C82.529 19.238 81.1287 20.0011 79.3655 20.0011C76.9093 20.0011 75.2719 18.1747 75.2719 14.7738C75.2719 11.373 76.9093 9.51511 79.3655 9.51511C81.1176 9.51511 82.5402 10.3845 83.0979 11.7618L86.8558 9.41362C85.3541 7.07501 82.6966 5.76786 79.397 5.76786C74.3587 5.76786 70.7689 9.29467 70.7689 14.7738ZM93.7373 23.4964H89.3288V0H93.7373V13.4513L99.5943 6.05126H105.325L97.642 14.8053L105.388 23.4964H99.6573L93.7373 16.0649V23.4964ZM115.213 9.38915C117.48 9.38915 119.306 10.8377 119.369 13.1364H111.087C111.434 10.7432 113.103 9.38915 115.213 9.38915ZM122.574 20.4204C121.058 22.4129 118.497 23.7798 115.339 23.7798C110.269 23.7798 106.584 20.253 106.584 14.7738C106.584 9.26318 110.174 5.76786 115.339 5.76786C120.377 5.76786 123.935 9.20021 123.935 14.396C123.935 14.9628 123.904 15.5296 123.809 16.0964H111.056C111.276 18.6785 113.04 20.127 115.244 20.127C117.053 20.127 118.36 19.2614 118.966 18.1654L122.574 20.4204ZM135.75 10.4283C133.136 10.4283 131.562 11.436 131.562 14.8053V23.4964H127.153V6.05126H131.562V8.75936C132.664 6.96446 134.49 5.79935 136.915 5.79935V10.4283H135.75Z" fill="white"/>
</svg>
