<svg width="56" height="56" viewBox="0 0 56 56" fill="none" xmlns="http://www.w3.org/2000/svg">
<circle cx="28" cy="28" r="28" fill="white"/>
<path fill-rule="evenodd" clip-rule="evenodd" d="M16.0808 16.4786C17.2363 17.4128 17.6542 17.339 19.8175 17.1915L40.1975 15.9623C40.64 15.9623 40.2712 15.5198 40.1237 15.4707L36.7312 13.0369C36.092 12.5452 35.207 11.9552 33.5599 12.1027L13.8437 13.5531C13.1308 13.6269 12.9833 13.9956 13.2783 14.2661L16.0808 16.4786ZM17.31 21.2233V42.6603C17.31 43.8157 17.8754 44.2336 19.1784 44.1599L41.5741 42.8569C42.8771 42.7832 43.0246 41.9965 43.0246 41.0623V19.7728C43.0246 18.8386 42.6558 18.3224 41.8691 18.3961L18.4654 19.7728C17.605 19.8466 17.31 20.2891 17.31 21.2233ZM39.4108 22.3787C39.5583 23.0179 39.4108 23.6816 38.7716 23.7554L37.6899 23.9766V39.8086C36.7557 40.3002 35.8953 40.5952 35.1578 40.5952C34.0024 40.5952 33.7074 40.2265 32.8469 39.1448L25.7914 28.0575V38.776L28.0285 39.2677C28.0285 39.2677 28.0285 40.5707 26.2339 40.5707L21.268 40.8657C21.1205 40.5707 21.268 39.8577 21.7597 39.7102L23.0626 39.3415V25.1812L21.268 25.0337C21.1205 24.3946 21.4892 23.4604 22.4972 23.3866L27.8318 23.0179L35.1824 34.228V24.3208L33.314 24.0996C33.1665 23.3129 33.7565 22.7229 34.4694 22.6491L39.4108 22.3787ZM12.1966 11.5864L32.724 10.0868C35.2315 9.86557 35.8953 10.0131 37.4687 11.1685L44.0079 15.7657C45.0896 16.5523 45.4584 16.7736 45.4584 17.634V42.8815C45.4584 44.4549 44.8929 45.3891 42.8771 45.5366L19.0555 46.987C17.5313 47.0608 16.8183 46.8395 16.0317 45.8316L11.1887 39.5627C10.3282 38.4073 9.95947 37.5469 9.95947 36.5389V14.094C9.95947 12.791 10.5495 11.7339 12.1966 11.5864Z" fill="black"/>
</svg>
