<svg width="65" height="58" viewBox="0 0 65 58" fill="none" xmlns="http://www.w3.org/2000/svg">
<path d="M53.933 12.009C53.933 13.586 53.6229 15.1476 53.0204 16.6046C52.4178 18.0616 51.5346 19.3855 50.4213 20.5006C49.3079 21.6158 47.9862 22.5004 46.5315 23.1039C45.0768 23.7074 43.5177 24.018 41.9431 24.018C40.3686 24.018 38.8095 23.7074 37.3548 23.1039C35.9001 22.5004 34.5784 21.6158 33.465 20.5006C32.3516 19.3855 31.4685 18.0616 30.8659 16.6046C30.2634 15.1476 29.9532 13.586 29.9532 12.009C29.9532 8.82401 31.2165 5.76948 33.465 3.51735C35.7135 1.26523 38.7632 0 41.9431 0C45.1231 0 48.1727 1.26523 50.4213 3.51735C52.6698 5.76948 53.933 8.82401 53.933 12.009Z" fill="black"/>
<path d="M62.3454 40.0453C60.3895 36.3231 57.4555 33.2068 53.8601 31.0331C50.2647 28.8594 46.1448 27.7109 41.9452 27.7117C37.7454 27.7113 33.6254 28.8602 30.0301 31.0343C26.4347 33.2083 23.5007 36.3249 21.5449 40.0473C23.9371 41.2923 25.9422 43.171 27.3417 45.4788C28.7411 47.7866 29.4813 50.4349 29.4814 53.135V57.2688H54.411V53.1329C54.4112 50.4331 55.1511 47.785 56.5502 45.4773C57.9492 43.1696 59.9538 41.2907 62.3454 40.0453Z" fill="black"/>
<path d="M62.3456 40.0455C59.9539 41.2909 57.9494 43.1698 56.5503 45.4775C55.1512 47.7852 54.4113 50.4333 54.4111 53.1331V57.269H65V50.8032C65 46.918 64.0359 43.2588 62.3456 40.0475" fill="black"/>
<path d="M21.5449 40.0458C19.4454 38.945 17.1105 38.3711 14.7407 38.3734C12.8052 38.3731 10.8886 38.7547 9.1003 39.4963C7.31203 40.2379 5.6871 41.325 4.3183 42.6956C2.9495 44.0662 1.86363 45.6934 1.1227 47.4844C0.381762 49.2753 0.000269362 51.1948 0 53.1334C0 55.414 1.84618 57.2672 4.12723 57.2672H18.8905V50.8015C18.8905 46.9163 19.8526 43.2571 21.5449 40.0458Z" fill="#02FF87"/>
<path d="M21.5448 40.0455C19.7969 43.3607 18.8856 47.0541 18.8904 50.8032V57.269H29.4793V53.1331C29.4791 50.4333 28.7391 47.7852 27.3401 45.4775C25.941 43.1698 23.9364 41.2909 21.5448 40.0455Z" fill="#3A3A3A"/>
<path d="M22.4044 27.9997C22.4211 29.0185 22.2351 30.0303 21.8574 30.9763C21.4797 31.9223 20.9177 32.7836 20.2044 33.5099C19.491 34.2362 18.6404 34.813 17.7022 35.2068C16.764 35.6005 15.7569 35.8033 14.7397 35.8033C13.7225 35.8033 12.7154 35.6005 11.7772 35.2068C10.839 34.813 9.98845 34.2362 9.27506 33.5099C8.56168 32.7836 7.99976 31.9223 7.62204 30.9763C7.24432 30.0303 7.05836 29.0185 7.075 27.9997C7.1079 25.9854 7.9299 24.0648 9.36373 22.652C10.7976 21.2392 12.7284 20.4474 14.7397 20.4474C16.7511 20.4474 18.6819 21.2392 20.1157 22.652C21.5495 24.0648 22.3715 25.9854 22.4044 27.9997Z" fill="#02FF87"/>
</svg>
