<svg width="61" height="70" viewBox="0 0 61 70" fill="none" xmlns="http://www.w3.org/2000/svg">
<g clip-path="url(#clip0_1_107)">
<path d="M17.0047 23.1626C24.6524 23.1626 31.3211 27.3513 34.8453 33.5573C42.0718 31.5638 47.3819 24.9484 47.3819 17.0872C47.3819 7.64769 39.7342 0 30.2947 0C20.8552 0 13.2075 7.64769 13.2075 17.0872C13.2075 19.2883 13.6228 21.3946 14.3823 23.3287C15.2426 23.2219 16.1147 23.1626 17.0047 23.1626Z" fill="#02FF87"/>
<path d="M48.2179 27.1971C44.6937 33.403 38.0249 37.5918 30.3772 37.5918C29.4873 37.5918 28.6151 37.5324 27.7548 37.4256C26.9954 39.3598 26.5801 41.4661 26.5801 43.6672C26.5801 53.1067 34.2278 60.7544 43.6672 60.7544C53.1067 60.7544 60.7544 53.1067 60.7544 43.6672C60.7544 35.8059 55.4443 29.1906 48.2179 27.1971Z" fill="black"/>
<path d="M27.9624 30.484C25.0078 28.0455 21.2166 26.5801 17.0872 26.5801C7.64769 26.5801 0 34.2278 0 43.6672C0 53.1067 7.64769 60.7544 17.0872 60.7544C21.2166 60.7544 25.0078 59.289 27.9624 56.8505C24.9663 53.2847 23.1626 48.6866 23.1626 43.6672C23.1626 38.6479 24.9663 34.0498 27.9624 30.484Z" fill="#02FF87"/>
<path d="M24.7312 14.459L29.9141 5.2834L35.097 14.459L29.9141 23.6346L24.7312 14.459Z" fill="#F1F0EC"/>
</g>
<rect x="3.9624" y="66.0381" width="51.5091" height="3.96224" fill="black"/>
<defs>
<clipPath id="clip0_1_107">
<rect width="60.7544" height="60.7544" fill="white"/>
</clipPath>
</defs>
</svg>
