<svg width="56" height="56" viewBox="0 0 56 56" fill="none" xmlns="http://www.w3.org/2000/svg">
<circle cx="28" cy="28" r="28" fill="#54D6FF"/>
<g clip-path="url(#clip0_856_153)">
<path d="M44.9995 17.4339C43.7135 18.0135 42.3279 18.4119 40.8785 18.5858C42.3635 17.6802 43.5003 16.2458 44.0332 14.5361C42.6477 15.3765 41.1059 15.985 39.4717 16.311C38.1643 14.8911 36.2957 14 34.2352 14C30.2705 14 27.0519 17.2818 27.0519 21.3243C27.0519 21.8966 27.1158 22.4544 27.2366 22.9905C21.2683 22.6862 15.982 19.7667 12.4366 15.3402C11.8184 16.4197 11.4631 17.6802 11.4631 19.0205C11.4631 21.5633 12.7279 23.8019 14.6605 25.1132C13.481 25.0769 12.3797 24.7437 11.4063 24.2003C11.4063 24.2293 11.4063 24.2583 11.4063 24.2945C11.4063 27.8444 13.8789 30.8001 17.1686 31.4739C16.5647 31.6405 15.9323 31.7275 15.2786 31.7275C14.8168 31.7275 14.3621 31.684 13.9286 31.5971C14.8452 34.5021 17.4954 36.6248 20.6359 36.6827C18.1775 38.646 15.0797 39.8196 11.7189 39.8196C11.1363 39.8196 10.5679 39.7834 10.0066 39.7182C13.1826 41.7974 16.9625 43.0072 21.0125 43.0072C34.221 43.0072 41.4469 31.8506 41.4469 22.1719C41.4469 21.8531 41.4398 21.5343 41.4256 21.2228C42.8253 20.1941 44.0403 18.9046 44.9995 17.4339Z" fill="white"/>
</g>
<defs>
<clipPath id="clip0_856_153">
<rect width="35" height="29" fill="white" transform="translate(10 14)"/>
</clipPath>
</defs>
</svg>
