<svg width="60" height="70" viewBox="0 0 60 70" fill="none" xmlns="http://www.w3.org/2000/svg">
<g clip-path="url(#clip0_1_107)">
<path d="M16.7935 22.875C24.3462 22.875 30.9321 27.0117 34.4126 33.1406C41.5493 31.1719 46.7935 24.6387 46.7935 16.875C46.7935 7.55273 39.2407 0 29.9185 0C20.5962 0 13.0435 7.55273 13.0435 16.875C13.0435 19.0488 13.4536 21.1289 14.2036 23.0391C15.0532 22.9336 15.9146 22.875 16.7935 22.875Z" fill="#02FF87"/>
<path d="M47.6191 26.8594C44.1387 32.9883 37.5527 37.125 30 37.125C29.1211 37.125 28.2598 37.0664 27.4102 36.9609C26.6602 38.8711 26.25 40.9512 26.25 43.125C26.25 52.4473 33.8027 60 43.125 60C52.4473 60 60 52.4473 60 43.125C60 35.3613 54.7559 28.8281 47.6191 26.8594Z" fill="black"/>
<path d="M27.6152 30.1055C24.6973 27.6973 20.9531 26.2501 16.875 26.2501C7.55273 26.2501 0 33.8028 0 43.1251C0 52.4473 7.55273 60.0001 16.875 60.0001C20.9531 60.0001 24.6973 58.5528 27.6152 56.1446C24.6562 52.6231 22.875 48.0821 22.875 43.1251C22.875 38.168 24.6562 33.627 27.6152 30.1055Z" fill="#02FF87"/>
<path d="M24.4242 14.2795L29.5427 5.21783L34.6613 14.2795L29.5427 23.3411L24.4242 14.2795Z" fill="#F1F0EC"/>
</g>
<rect x="3.91321" y="65.2181" width="50.8696" height="3.91304" fill="black"/>
<defs>
<clipPath id="clip0_1_107">
<rect width="60" height="60" fill="white"/>
</clipPath>
</defs>
</svg>
