<svg width="106" height="107" viewBox="0 0 106 107" fill="none" xmlns="http://www.w3.org/2000/svg">
<g clip-path="url(#clip0_36_99)">
<path d="M21.5939 37.7395C21.5227 37.7395 21.4515 37.7395 21.3566 37.7156C15.092 36.8579 10.1088 35.7858 6.52563 34.5469C3.72554 33.57 0 31.9022 0 28.9241C0 25.9697 3.82046 24.3734 5.07813 23.8731C7.7833 22.7533 11.6038 21.7526 16.4209 20.8949C26.1974 19.1795 39.2013 18.2264 53.0119 18.2264C66.8225 18.2264 79.8025 19.1795 89.6029 20.8949C94.4437 21.7526 98.2642 22.7533 100.946 23.8731C102.203 24.3972 106.024 25.9697 106.024 28.9241C106.024 32.0928 101.61 33.7606 100.163 34.2848C97.0065 35.4761 92.5453 36.5244 86.9452 37.3821C86.0197 37.525 85.1654 36.8818 85.0468 35.9764C84.9044 35.0472 85.5451 34.1895 86.4468 34.0704C99.2845 32.1167 102.559 29.6388 102.678 28.9241C102.559 28.3046 99.6879 26.0412 88.4638 24.1113C78.9246 22.4912 66.3479 21.5858 53.0119 21.5858C39.6996 21.5858 27.0992 22.4912 17.5599 24.1113C6.3358 26.0174 3.46452 28.2808 3.34587 28.9241C3.34587 28.9241 3.74927 30.0439 7.97314 31.4734C11.2715 32.5932 16.0649 33.5938 21.8075 34.3801C22.7329 34.4992 23.3736 35.3569 23.2313 36.2623C23.1363 37.12 22.4244 37.7395 21.5939 37.7395Z" fill="#00FF85"/>
<path d="M53.0119 100.972C39.2013 100.972 26.2212 100.019 16.4209 98.3037C11.58 97.446 7.75957 96.4453 5.07813 95.3494C3.82046 94.8252 0 93.2289 0 90.2746C0 87.6776 2.77636 85.6763 8.73248 83.9608C13.597 82.5551 20.4786 81.4115 28.6416 80.6491C29.567 80.5538 30.3739 81.2447 30.4688 82.1739C30.5637 83.1031 29.8755 83.9132 28.9501 84.0085C8.30535 85.9383 3.51198 89.4645 3.34587 90.2984C3.46452 90.9178 6.3358 93.1813 17.5599 95.0873C27.0992 96.7074 39.6758 97.6128 53.0119 97.6128C66.3242 97.6128 78.9246 96.7074 88.4638 95.0873C99.6879 93.1813 102.559 90.9178 102.678 90.2746C102.535 89.4883 97.9319 86.0813 78.1415 84.1276C77.216 84.0323 76.5516 83.2222 76.6465 82.293C76.7414 81.3638 77.5482 80.6967 78.4737 80.792C86.3282 81.5783 92.9725 82.7219 97.6235 84.1038C103.342 85.7954 106.024 87.7729 106.024 90.3222C106.024 93.2766 102.203 94.849 100.946 95.3732C98.2404 96.493 94.42 97.4937 89.6029 98.3276C79.8025 100.019 66.7987 100.972 53.0119 100.972Z" fill="#00FF85"/>
<path d="M53.5577 85.4618C49.0253 85.4618 44.8252 83.2222 41.4081 79.0289C39.2962 76.432 38.1097 73.835 37.7538 73.0249C35.7605 70.5471 32.1061 65.1626 31.6078 61.2075L31.1807 57.872C30.9434 56.0374 30.4213 54.2743 29.5908 52.6304L29.1874 51.7965C27.8348 49.0804 27.1229 46.0307 27.1229 43.0049V30.2106C27.1229 29.2815 27.8823 28.519 28.8077 28.519C29.7332 28.519 30.4925 29.2815 30.4925 30.2106V43.0049C30.4925 45.5304 31.0858 48.0559 32.2011 50.2955L32.6045 51.1294C33.6011 53.1069 34.2418 55.2512 34.5266 57.4431L34.9537 60.7787C35.3334 63.8283 38.5606 68.7125 40.5064 71.0951C40.625 71.238 40.72 71.381 40.7674 71.5478C40.8149 71.6431 45.0387 82.1263 53.5577 82.1263C57.0459 82.1263 60.0596 80.4823 62.5274 77.242C64.4733 74.6927 65.3275 72.0719 65.3513 72.0481C65.4225 71.8337 65.5411 71.6192 65.6835 71.4525C67.8903 68.9508 71.1413 63.9713 71.5684 60.7787L71.9244 58.0388C72.2566 55.3941 73.1108 52.8925 74.4397 50.6052C76.694 46.7455 77.2161 41.7898 75.9821 35.8811C75.7923 34.9757 76.3855 34.0942 77.2872 33.9036C78.189 33.713 79.067 34.3086 79.2568 35.214C80.6568 41.9566 79.9924 47.7223 77.3347 52.3206C76.2194 54.2267 75.5312 56.2995 75.2465 58.4676L74.8906 61.2075C74.3685 65.234 70.8328 70.5947 68.4361 73.43C67.6768 75.4313 63.5478 85.4618 53.5577 85.4618Z" fill="#4A4947"/>
<path d="M3.1323 107C2.4916 107 1.87463 106.619 1.6136 105.999C1.23393 105.142 1.6136 104.165 2.46787 103.784L11.7224 99.6379C12.5767 99.2567 13.5496 99.6379 13.9293 100.496C14.3089 101.353 13.9293 102.33 13.075 102.711L3.82045 106.857C3.58316 106.952 3.36959 107 3.1323 107Z" fill="#4A4947"/>
<path d="M21.2617 98.8755C20.621 98.8755 20.004 98.4943 19.7193 97.8749C19.3396 97.0172 19.7193 96.0403 20.5735 95.6591L37.1368 88.2256L38.3232 74.0018C38.3944 73.0726 39.2012 72.3817 40.1267 72.4531C41.0521 72.5246 41.7403 73.3347 41.6454 74.2639L40.3877 89.4883C40.3403 90.1078 39.9606 90.6319 39.3911 90.894L21.9261 98.7326C21.7363 98.8279 21.499 98.8755 21.2617 98.8755Z" fill="#4A4947"/>
<path d="M84.6671 98.8517C84.4298 98.8517 84.2162 98.8041 83.9789 98.7088L66.5852 90.894C66.0394 90.6558 65.6597 90.1078 65.6122 89.5121L64.3546 75.479C64.2597 74.5498 64.9478 73.7397 65.8733 73.6444C66.7987 73.5729 67.6055 74.24 67.7004 75.1692L68.8632 88.2256L85.379 95.6353C86.2332 96.0165 86.6129 97.0171 86.2332 97.851C85.9248 98.4705 85.3078 98.8517 84.6671 98.8517Z" fill="#4A4947"/>
<path d="M102.868 107C102.63 107 102.417 106.952 102.18 106.857L92.2606 102.402C91.4063 102.02 91.0504 101.02 91.4063 100.186C91.786 99.3282 92.7826 98.947 93.6132 99.3282L103.532 103.784C104.386 104.165 104.742 105.165 104.386 105.999C104.125 106.643 103.508 107 102.868 107Z" fill="#4A4947"/>
<path d="M68.9107 99.8762C68.6259 99.8762 68.3412 99.8047 68.0801 99.6618C67.2733 99.2091 66.9886 98.1846 67.4394 97.3745C69.2903 94.0866 69.2666 91.0846 69.2666 91.0608C69.2429 90.1316 69.9785 89.3692 70.9039 89.3454C70.9039 89.3454 70.9277 89.3454 70.9514 89.3454C71.8531 89.3454 72.5888 90.0601 72.6125 90.9655C72.6125 91.1323 72.6837 94.8967 70.3582 99.0185C70.0734 99.5903 69.5039 99.8762 68.9107 99.8762Z" fill="#4A4947"/>
<path d="M38.0623 100.591C37.5402 100.591 37.0182 100.353 36.6859 99.8762C33.6011 95.5161 33.3638 91.2752 33.3401 91.1084C33.2926 90.1793 34.0045 89.393 34.93 89.3454C35.8554 89.2977 36.6385 90.0125 36.6859 90.9417C36.6859 91.0131 36.9232 94.444 39.4148 97.9463C39.9606 98.7088 39.7708 99.7571 39.0114 100.281C38.7504 100.472 38.3945 100.591 38.0623 100.591Z" fill="#4A4947"/>
<path d="M47.1032 47.222C47.1032 48.8183 45.8218 50.1049 44.2319 50.1049C42.642 50.1049 41.3606 48.8183 41.3606 47.222C41.3606 45.6257 42.642 44.3391 44.2319 44.3391C45.8218 44.3391 47.1032 45.6257 47.1032 47.222Z" fill="#4A4947"/>
<path d="M65.897 47.222C65.897 48.8183 64.6156 50.1049 63.0257 50.1049C61.4358 50.1049 60.1544 48.8183 60.1544 47.222C60.1544 45.6257 61.4358 44.3391 63.0257 44.3391C64.6156 44.3391 65.897 45.6257 65.897 47.222Z" fill="#4A4947"/>
<path d="M66.0156 12.2224C65.3038 12.2224 64.6393 11.7698 64.4258 11.055C64.3783 10.9359 63.5715 8.55333 60.4392 6.48051C55.0289 2.85905 47.0794 3.04965 41.3606 3.85972C41.0284 3.90737 38.5843 4.33622 35.7842 4.503C34.0994 4.5983 32.6519 4.57448 31.4179 4.45535L32.1773 6.02783C32.5332 6.79024 32.2959 7.69561 31.6078 8.14829C31.4417 8.26742 27.4788 10.8882 20.8583 7.62413C20.0277 7.2191 19.6718 6.19461 20.0989 5.38454C20.5023 4.55065 21.499 4.2171 22.3295 4.62213C25.1059 5.98018 27.1229 6.05166 28.3568 5.83723L26.6957 2.43019C26.3398 1.71543 26.5534 0.857712 27.1703 0.357378C27.7873 -0.142955 28.6653 -0.11913 29.2823 0.405029C30.3026 1.28657 35.0011 1.57248 40.7911 0.547982C40.8148 0.547982 40.8386 0.547982 40.8623 0.547982C63.4766 -2.6208 67.4632 9.55399 67.6293 10.0782C67.8903 10.9597 67.4157 11.9127 66.514 12.1748C66.3241 12.1986 66.158 12.2224 66.0156 12.2224Z" fill="#4A4947"/>
<path d="M74.321 37.3344C61.7443 37.3344 59.7985 30.5442 59.7273 30.2345L62.9545 29.3767V29.3529C62.9782 29.4006 63.4054 30.711 65.28 31.9261C67.036 33.0697 70.3819 34.3086 76.4804 33.9274C77.2872 31.9737 79.0906 27.018 79.3516 21.7526C79.3991 20.8234 80.2059 20.1087 81.1076 20.1563C82.0331 20.204 82.745 20.9902 82.6975 21.9194C82.3178 29.3529 79.2567 35.9526 79.1144 36.2146C78.8533 36.7626 78.3313 37.12 77.738 37.1677C76.5278 37.2868 75.3888 37.3344 74.321 37.3344Z" fill="#4A4947"/>
<path d="M80.3484 16.4634C79.6128 16.4634 78.9483 15.9868 78.7348 15.2483C78.1178 13.0563 77.05 11.1979 75.5787 9.69694C70.2871 4.38387 64.8055 8.12446 64.5682 8.29124C63.8089 8.8154 62.7648 8.64862 62.2427 7.8862C61.6969 7.12379 61.8631 6.0993 62.6224 5.55131C62.6936 5.50366 64.6631 4.09796 67.5107 3.64528C70.1684 3.21642 74.1312 3.50233 77.9517 7.33822C79.8501 9.24425 81.1789 11.603 81.962 14.3429C82.223 15.2244 81.701 16.1536 80.7993 16.4157C80.6331 16.4395 80.4908 16.4634 80.3484 16.4634Z" fill="#4A4947"/>
<path d="M40.8623 35.2378C28.6416 35.2378 23.4448 28.5429 21.2617 22.6342C20.9057 21.7764 21.3566 20.7996 22.2109 20.4899C23.0651 20.1563 24.038 20.609 24.3702 21.4667C27.2653 29.2338 33.9095 32.6885 44.0658 31.7355C49.8083 31.1875 57.5205 29.615 61.7681 25.2073C64.1885 22.6818 64.3308 20.4422 64.3308 20.3469L66.0156 20.3946L67.6767 20.4184C67.6767 20.9187 67.1547 32.8791 44.3743 35.0472C43.1403 35.1902 41.9776 35.2378 40.8623 35.2378Z" fill="#4A4947"/>
<path d="M21.2617 16.4634C20.4074 16.4634 19.6718 15.7963 19.6006 14.9147C19.3633 12.0319 19.482 8.8869 19.9328 5.86107C20.0752 4.93188 20.9295 4.31242 21.8312 4.45537C22.7329 4.59832 23.3736 5.45604 23.2312 6.3614C22.8278 9.14898 22.7092 12.008 22.9228 14.6527C23.0177 15.5818 22.3295 16.3919 21.4041 16.4634C21.3566 16.4634 21.3091 16.4634 21.2617 16.4634Z" fill="#4A4947"/>
<path d="M30.0654 51.2723C29.8518 51.2723 29.662 51.2247 29.4484 51.1532C28.5942 50.8196 28.167 49.8428 28.4992 48.9613L34.8113 32.9267C35.1435 32.069 36.1164 31.6402 36.9944 31.9737C37.8487 32.3073 38.2758 33.2841 37.9436 34.1657L31.6315 50.2002C31.3468 50.8911 30.7298 51.2723 30.0654 51.2723Z" fill="#4A4947"/>
<path d="M76.5516 51.7965C75.816 51.7965 75.1516 51.2961 74.938 50.5575L70.9277 36.0955C70.6904 35.1901 71.2125 34.2848 72.0905 34.0227C72.9922 33.7844 73.8939 34.3086 74.155 35.1901L78.1653 49.6522C78.4026 50.5575 77.8805 51.4629 77.0025 51.725C76.8601 51.7726 76.694 51.7965 76.5516 51.7965Z" fill="#4A4947"/>
<path d="M1.6848 60.0877C0.759346 60.0877 0 59.3253 0 58.3961V28.8764C0 27.9472 0.759346 27.1848 1.6848 27.1848C2.61025 27.1848 3.3696 27.9472 3.3696 28.8764V58.3961C3.34587 59.3253 2.61025 60.0877 1.6848 60.0877Z" fill="#00FF85"/>
<path d="M1.6848 91.9662C0.759346 91.9662 0 91.2038 0 90.2746V74.1924C0 73.2632 0.759346 72.5008 1.6848 72.5008C2.61025 72.5008 3.3696 73.2632 3.3696 74.1924V90.2746C3.34587 91.2038 2.61025 91.9662 1.6848 91.9662Z" fill="#00FF85"/>
<path d="M1.6848 68.3075C0.759346 68.3075 0 67.5689 0 66.6397V64.9958C0 64.0666 0.759346 63.3042 1.6848 63.3042C2.61025 63.3042 3.3696 64.0666 3.3696 64.9958V66.6397C3.34587 67.5689 2.61025 68.3075 1.6848 68.3075Z" fill="#00FF85"/>
<path d="M104.315 46.6264C103.39 46.6264 102.63 45.8639 102.63 44.9348V28.8526C102.63 27.9234 103.39 27.161 104.315 27.161C105.241 27.161 106 27.9234 106 28.8526V44.9348C106 45.8878 105.241 46.6264 104.315 46.6264Z" fill="#00FF85"/>
<path d="M104.315 91.9661C103.39 91.9661 102.63 91.2037 102.63 90.2745V60.7548C102.63 59.8256 103.39 59.0632 104.315 59.0632C105.241 59.0632 106 59.8256 106 60.7548V90.2745C106 91.2037 105.241 91.9661 104.315 91.9661Z" fill="#00FF85"/>
<path d="M104.315 54.87C103.39 54.87 102.63 54.1076 102.63 53.1784V51.5344C102.63 50.6052 103.39 49.8428 104.315 49.8428C105.241 49.8428 106 50.6052 106 51.5344V53.1784C106 54.1076 105.241 54.87 104.315 54.87Z" fill="#4A4947"/>
</g>
<defs>
<clipPath id="clip0_36_99">
<rect width="106" height="107" fill="white"/>
</clipPath>
</defs>
</svg>
