<svg width="56" height="56" viewBox="0 0 56 56" fill="none" xmlns="http://www.w3.org/2000/svg">
<circle cx="28" cy="28" r="28" fill="#7D4DCC"/>
<path d="M41.2176 16.3648C45.5092 22.4667 47.6287 29.3496 46.8364 37.2733C46.8331 37.3068 46.815 37.3376 46.7865 37.3578C43.5366 39.6656 40.3878 41.0661 37.2832 41.9949C37.259 42.002 37.2332 42.0016 37.2092 41.9938C37.1853 41.9859 37.1645 41.9711 37.1497 41.9513C36.4325 40.9862 35.7808 39.9687 35.2098 38.9003C35.1771 38.8374 35.207 38.7616 35.2744 38.7368C36.3095 38.3596 37.2937 37.9076 38.2403 37.3725C38.3149 37.3302 38.3197 37.2269 38.2508 37.1773C38.0499 37.033 37.8508 36.8815 37.6604 36.7299C37.6247 36.7019 37.5768 36.6963 37.5364 36.7152C31.3904 39.4598 24.6577 39.4598 18.439 36.7152C18.3987 36.6977 18.3507 36.7037 18.316 36.7313C18.126 36.8828 17.9265 37.033 17.7275 37.1773C17.6586 37.2269 17.6643 37.3302 17.7394 37.3725C18.686 37.8975 19.6702 38.3596 20.7038 38.7386C20.7708 38.7634 20.8026 38.8374 20.7694 38.9003C20.2108 39.9701 19.5591 40.9875 18.8285 41.9526C18.7967 41.9917 18.7445 42.0096 18.6951 41.9949C15.6052 41.0661 12.4564 39.6656 9.20648 37.3578C9.17941 37.3376 9.15993 37.3054 9.15708 37.2719C8.49493 30.418 9.84441 23.4782 14.7706 16.3634C14.7825 16.3446 14.8005 16.3299 14.8214 16.3212C17.2454 15.2454 19.8422 14.4539 22.5563 14.0019C22.6057 13.9946 22.6551 14.0166 22.6808 14.0589C23.0161 14.6331 23.3995 15.3694 23.6588 15.9711C26.5197 15.5486 29.4253 15.5486 32.3461 15.9711C32.6054 15.3823 32.9754 14.6331 33.3094 14.0589C33.3213 14.0379 33.3397 14.0211 33.362 14.0109C33.3844 14.0007 33.4095 13.9975 33.4338 14.0019C36.1494 14.4553 38.7462 15.2468 41.1682 16.3212C41.1896 16.3299 41.2072 16.3446 41.2176 16.3648ZM25.1133 29.3964C25.1432 27.3703 23.6156 25.6936 21.698 25.6936C19.7961 25.6936 18.2832 27.3556 18.2832 29.3964C18.2832 31.4368 19.826 33.0988 21.698 33.0988C23.6004 33.0988 25.1133 31.4368 25.1133 29.3964ZM37.7397 29.3964C37.7696 27.3703 36.242 25.6936 34.3249 25.6936C32.4225 25.6936 30.9097 27.3556 30.9097 29.3964C30.9097 31.4368 32.4525 33.0988 34.3249 33.0988C36.242 33.0988 37.7397 31.4368 37.7397 29.3964Z" fill="white"/>
</svg>
