<svg width="117" height="107" viewBox="0 0 117 107" fill="none" xmlns="http://www.w3.org/2000/svg">
<g clip-path="url(#clip0_36_147)">
<path d="M89.0099 3.64773C84.4354 3.64773 80.7137 7.37307 80.7137 11.9521C80.7137 16.5312 84.4354 20.2565 89.0099 20.2565C93.5845 20.2565 97.3062 16.5312 97.3062 11.9521C97.3062 7.37307 93.5586 3.64773 89.0099 3.64773ZM89.0099 23.9043C82.4195 23.9043 77.0696 18.5491 77.0696 11.9521C77.0696 5.35517 82.4195 0 89.0099 0C95.6004 0 100.95 5.35517 100.95 11.9521C100.95 18.5491 95.5745 23.9043 89.0099 23.9043Z" fill="#474747"/>
<path d="M94.4374 50.3956H67.3777C63.9145 50.3956 61.0974 47.5757 61.0974 44.109C61.0974 40.6424 63.9145 37.8225 67.3777 37.8225H88.2346L89.4493 31.6913C89.6561 30.7082 90.6123 30.0614 91.5944 30.2684C92.5765 30.4753 93.2227 31.4326 93.0417 32.4156L91.5427 40.0215C91.3877 40.8753 90.6382 41.4961 89.7594 41.4961H67.4036C65.9563 41.4961 64.7674 42.6862 64.7674 44.1349C64.7674 45.5837 65.9563 46.7737 67.4036 46.7737H94.4632C96.2207 46.7737 97.7714 45.4543 98.0298 43.6951L100.175 28.9231C100.718 25.1978 99.2445 21.3948 96.2982 19.0148C95.5229 18.3939 95.3936 17.2297 96.0139 16.4536C96.6342 15.6775 97.7972 15.5481 98.5726 16.169C102.501 19.3511 104.491 24.4217 103.767 29.4405L101.622 44.2125C101.08 47.7309 98.004 50.3956 94.4374 50.3956Z" fill="#474747"/>
<path d="M40.6282 46.7478H57.9443L51.6382 26.5689H34.0636L40.6282 46.7478ZM71.7455 50.3955H39.3101C38.509 50.3955 37.8111 49.8781 37.5785 49.1279L29.8509 25.3013C29.67 24.758 29.7734 24.1371 30.1094 23.6714C30.4453 23.2057 30.9881 22.9212 31.5825 22.9212H53.008C53.8092 22.9212 54.507 23.4386 54.7396 24.2147L61.7694 46.7478H71.7455C72.7535 46.7478 73.5805 47.5757 73.5805 48.5846C73.5547 49.5936 72.7535 50.3955 71.7455 50.3955Z" fill="#00FF85"/>
<path d="M74.1233 34.925C73.994 34.925 73.8648 34.8992 73.7356 34.8733C72.7535 34.6663 72.1332 33.6833 72.34 32.7002L73.5547 27.0087C74.4076 23.1023 77.2763 19.8426 81.0497 18.5232L82.1352 18.1351C83.0915 17.7988 84.1252 18.3162 84.4612 19.2476C84.7972 20.2048 84.2803 21.2396 83.3499 21.5759L82.2644 21.9898C79.6799 22.8953 77.7157 25.1202 77.1471 27.7848L75.9324 33.4763C75.7256 34.33 74.9503 34.925 74.1233 34.925Z" fill="#474747"/>
<path d="M3.64413 55.3885H111.857V50.3956H3.64413V55.3885ZM113.692 59.0363H1.83499C0.827038 59.0363 0 58.2343 0 57.2254V48.5846C0 47.5757 0.827038 46.7478 1.83499 46.7478H113.692C114.7 46.7478 115.527 47.5757 115.527 48.5846V57.2254C115.527 58.2343 114.7 59.0363 113.692 59.0363Z" fill="#474747"/>
<path d="M51.6898 104.62C49.4413 104.62 47.3996 103.585 46.0556 101.774C44.7375 99.9633 44.3499 97.6867 45.0218 95.5394C45.0218 95.5135 45.0218 95.5135 45.0477 95.4877L55.7475 64.0551C56.0835 63.0979 57.1173 62.5805 58.0735 62.9168C59.0298 63.2532 59.5467 64.288 59.2107 65.2452L48.5109 96.626C48.2008 97.6349 48.3817 98.7215 49.002 99.5752C49.6481 100.429 50.6302 100.946 51.6898 100.946C53.1113 100.946 54.4035 100.041 54.8429 98.6697L64.0696 71.5058C64.328 70.7556 65.0258 70.264 65.8012 70.264H83.9443C90.0437 70.264 91.7753 69.1257 93.1968 64.1327C93.4811 63.1755 94.489 62.6064 95.4453 62.891C96.4274 63.1755 96.9701 64.1845 96.6859 65.1417C94.5924 72.5148 90.5864 73.9118 83.9185 73.9118H67.0676L58.2803 99.8598C57.324 102.706 54.662 104.62 51.6898 104.62Z" fill="#474747"/>
<path d="M40.835 104.62C38.6124 104.62 36.5706 103.611 35.2267 101.826C33.8827 100.041 33.4692 97.816 34.0637 95.6688C34.0637 95.6429 34.0636 95.617 34.0895 95.5911L44.4275 64.1069C44.7376 63.1497 45.7714 62.6322 46.7277 62.9427C47.6839 63.2531 48.2008 64.2879 47.8907 65.2452L37.5786 96.7036C37.2943 97.7125 37.501 98.7991 38.1471 99.6269C38.7933 100.481 39.7754 100.972 40.835 100.972C42.334 100.972 43.6263 100.015 44.0656 98.5921L46.5209 90.7016C46.831 89.7444 47.839 89.2011 48.7953 89.5116C49.7515 89.822 50.2943 90.831 49.9841 91.7882L47.5289 99.6528C46.6243 102.628 43.9364 104.62 40.835 104.62Z" fill="#474747"/>
<path d="M115.165 107C114.286 107 113.511 106.379 113.356 105.474L105.37 57.5358C105.215 56.5527 105.861 55.5955 106.869 55.4403C107.851 55.2851 108.807 55.9577 108.962 56.9408L116.948 104.879C117.103 105.862 116.431 106.819 115.449 106.974C115.372 106.974 115.268 107 115.165 107Z" fill="#474747"/>
<path d="M1.86082 107C1.75744 107 1.65406 107 1.55068 106.974C0.56857 106.819 -0.103398 105.862 0.0516714 104.879L8.0636 56.9149C8.21867 55.9318 9.17493 55.2592 10.157 55.4144C11.1391 55.5696 11.8111 56.5269 11.656 57.5099L3.64412 105.474C3.51489 106.353 2.73954 107 1.86082 107Z" fill="#474747"/>
<path d="M15.8429 107C15.7396 107 15.6362 107 15.5328 106.974C14.5507 106.819 13.8787 105.862 14.0338 104.879L22.0457 56.9149C22.2008 55.9318 23.157 55.2592 24.1392 55.4144C25.1213 55.5696 25.7932 56.5269 25.6382 57.5099L17.6521 105.474C17.497 106.353 16.7217 107 15.8429 107Z" fill="#474747"/>
<path d="M107.153 50.3955C106.972 50.3955 106.791 50.3697 106.61 50.3179C105.654 50.0334 105.111 48.9985 105.396 48.0413L112.245 25.7669C112.71 24.2664 112.425 22.6883 111.495 21.4207C110.565 20.153 109.143 19.4287 107.567 19.4287H99.0894C98.0815 19.4287 97.2545 18.6008 97.2545 17.5919C97.2545 16.5829 98.0815 15.7551 99.0894 15.7551H107.567C110.306 15.7551 112.813 17.0227 114.415 19.2217C116.044 21.4207 116.509 24.1888 115.708 26.8017L108.859 49.0761C108.652 49.904 107.928 50.3955 107.153 50.3955Z" fill="#474747"/>
<path d="M92.2147 77.8182H65.8012C64.7932 77.8182 63.9662 76.9903 63.9662 75.9814C63.9662 74.9724 64.7932 74.1446 65.8012 74.1446H92.2147C95.4712 74.1446 98.4175 71.9456 99.3221 68.8153L102.889 56.6821C103.173 55.7249 104.181 55.1557 105.163 55.4403C106.119 55.7249 106.688 56.7338 106.404 57.7169L102.811 69.8501C101.441 74.5326 97.0735 77.8182 92.2147 77.8182Z" fill="#474747"/>
<path d="M99.994 104.62C99.1411 104.62 98.3658 103.999 98.2107 103.145L93.1451 76.3177C92.9642 75.3346 93.6103 74.3774 94.5924 74.1963C95.5745 74.0152 96.5308 74.662 96.7117 75.6451L101.777 102.447C101.958 103.43 101.312 104.387 100.33 104.568C100.227 104.594 100.123 104.62 99.994 104.62Z" fill="#474747"/>
<path d="M68.1789 104.62C68.0756 104.62 67.9463 104.62 67.843 104.594C66.8609 104.413 66.2147 103.456 66.3957 102.473L71.4613 75.6709C71.6422 74.6879 72.5984 74.0411 73.5805 74.2222C74.5626 74.4033 75.2088 75.3605 75.0279 76.3436L69.9623 103.145C69.8072 103.999 69.0318 104.62 68.1789 104.62Z" fill="#474747"/>
</g>
<defs>
<clipPath id="clip0_36_147">
<rect width="117" height="107" fill="white"/>
</clipPath>
</defs>
</svg>
