<svg width="120" height="120" viewBox="0 0 120 120" fill="none" xmlns="http://www.w3.org/2000/svg">
<g clip-path="url(#clip0_36_51)">
<path d="M59.9871 42.4457C50.2993 42.4457 42.4198 50.3251 42.4198 60.0129C42.4198 69.7008 50.2993 77.5802 59.9871 77.5802C69.6749 77.5802 77.5544 69.7008 77.5544 60.0129C77.5544 50.2993 69.6749 42.4457 59.9871 42.4457ZM59.9871 81.197C48.2842 81.197 38.7772 71.69 38.7772 59.9871C38.7772 48.2842 48.2842 38.7772 59.9871 38.7772C71.69 38.7772 81.197 48.2842 81.197 59.9871C81.197 71.69 71.69 81.197 59.9871 81.197Z" fill="#00FF85"/>
<path d="M22.7341 59.9871C27.0484 64.1722 42.2648 77.5544 60.0129 77.5544C77.761 77.5544 92.9516 64.1722 97.2659 59.9871C92.9516 55.8019 77.7352 42.4198 60.0129 42.4198C42.2906 42.4198 27.0484 55.8019 22.7341 59.9871ZM59.9871 81.197C48.155 81.197 37.5888 75.746 30.7944 71.1992C23.4833 66.2906 18.9882 61.4338 18.8073 61.2271C18.1615 60.5296 18.1615 59.4446 18.8073 58.7471C18.9882 58.5404 23.4833 53.6835 30.7944 48.775C37.5888 44.2024 48.155 38.7772 59.9871 38.7772C71.8192 38.7772 82.3854 44.2282 89.1798 48.775C96.4909 53.6835 100.986 58.5404 101.167 58.7471C101.813 59.4446 101.813 60.5296 101.167 61.2271C100.986 61.4338 96.4909 66.2906 89.1798 71.1992C82.3854 75.7718 71.8192 81.197 59.9871 81.197Z" fill="#4A4947"/>
<path d="M59.9871 50.8676C54.9494 50.8676 50.8418 54.9753 50.8418 59.9871C50.8418 65.0248 54.9494 69.1324 59.9871 69.1324C65.0248 69.1324 69.1066 65.0248 69.1066 59.9871C69.1324 54.9494 65.0248 50.8676 59.9871 50.8676ZM59.9871 72.775C52.9344 72.775 47.1992 67.0398 47.1992 59.9871C47.1992 52.9344 52.9344 47.1992 59.9871 47.1992C67.0398 47.1992 72.775 52.9344 72.775 59.9871C72.775 67.0398 67.0398 72.775 59.9871 72.775Z" fill="#00FF85"/>
<path d="M59.9871 110.364H40.5081C39.8364 110.364 39.1905 109.976 38.8805 109.382C38.5705 108.788 38.6222 108.039 39.0097 107.496C39.5005 106.799 39.7589 105.998 39.7589 105.171C39.7589 102.949 37.9505 101.115 35.7029 101.115C33.4811 101.115 31.6469 102.924 31.6469 105.171C31.6469 106.024 31.9053 106.825 32.3961 107.496C32.7836 108.065 32.8353 108.788 32.5253 109.382C32.2153 109.976 31.5953 110.364 30.8977 110.364H11.4446C10.437 110.364 9.61032 109.537 9.61032 108.53V88.1981C9.61032 87.5522 9.972 86.9322 10.5404 86.6222C11.1087 86.2863 11.8062 86.3122 12.3746 86.648C12.9946 87.0097 13.718 87.2164 14.4155 87.2164C16.6372 87.2164 18.4715 85.408 18.4715 83.1604C18.4715 80.9387 16.6631 79.1044 14.4155 79.1044C13.6921 79.1044 12.9688 79.3111 12.3746 79.6728C11.8062 80.0086 11.1087 80.0086 10.5404 79.6728C9.972 79.3369 9.61032 78.7427 9.61032 78.0969V59.9871C9.61032 58.9796 10.437 58.1529 11.4446 58.1529H20.1507C21.1582 58.1529 21.9849 58.9796 21.9849 59.9871C21.9849 60.9946 21.1582 61.8213 20.1507 61.8213H13.2788V75.5651C13.6663 75.5135 14.0538 75.4876 14.4413 75.4876C18.6781 75.4876 22.1399 78.9494 22.1399 83.1862C22.1399 87.423 18.6781 90.8848 14.4413 90.8848C14.0538 90.8848 13.6663 90.859 13.2788 90.8073V106.747H28.1851C28.0818 106.23 28.0301 105.714 28.0301 105.197C28.0301 100.96 31.4919 97.4984 35.7287 97.4984C39.9655 97.4984 43.4273 100.96 43.4273 105.197C43.4273 105.74 43.3757 106.256 43.2723 106.747H58.1787V90.7557C57.6878 90.859 57.197 90.9107 56.6803 90.9107C53.7094 90.9107 50.9709 89.1539 49.705 86.4672C49.2917 85.563 49.6792 84.4779 50.5834 84.0388C51.4876 83.6254 52.5727 84.0129 53.0118 84.9171C53.6835 86.338 55.1044 87.268 56.6803 87.268C57.507 87.268 58.282 87.0355 58.9537 86.5705C59.5221 86.183 60.2454 86.1572 60.8396 86.4672C61.4338 86.7772 61.8213 87.3972 61.8213 88.0689V108.607C61.8213 109.537 60.9946 110.364 59.9871 110.364Z" fill="#4A4947"/>
<path d="M108.555 61.8213C107.548 61.8213 106.721 60.9946 106.721 59.9871V41.9548C106.23 42.0581 105.74 42.1098 105.223 42.1098C100.986 42.1098 97.5242 38.648 97.5242 34.4112C97.5242 30.1744 100.986 26.7126 105.223 26.7126C105.714 26.7126 106.23 26.7642 106.721 26.8676V13.2788H91.7115C91.8665 13.8988 91.9699 14.5447 91.9699 15.2163C91.9699 19.4532 88.5081 22.9149 84.2713 22.9149C80.0345 22.9149 76.5727 19.4532 76.5727 15.2163C76.5727 14.5705 76.6502 13.8988 76.831 13.2788H60.0129C59.0054 13.2788 58.1787 12.4521 58.1787 11.4446C58.1787 10.437 59.0054 9.61032 60.0129 9.61032H79.7761C80.4736 9.61032 81.1195 10.0237 81.4295 10.6695C81.7395 11.3154 81.6362 12.0646 81.1712 12.6071C80.5512 13.3563 80.2411 14.2346 80.2411 15.1905C80.2411 17.4123 82.0495 19.2465 84.2971 19.2465C86.5189 19.2465 88.3531 17.4381 88.3531 15.1905C88.3531 14.2346 88.0172 13.3305 87.4231 12.6071C86.9839 12.0646 86.8805 11.3154 87.1647 10.6695C87.4747 10.0237 88.0947 9.61032 88.8181 9.61032H108.581C109.589 9.61032 110.416 10.437 110.416 11.4446V29.5543C110.416 30.226 110.054 30.8461 109.434 31.1561C108.84 31.4661 108.116 31.4402 107.548 31.0527C106.876 30.5877 106.075 30.3552 105.275 30.3552C103.053 30.3552 101.219 32.1636 101.219 34.4112C101.219 36.6329 103.027 38.4672 105.275 38.4672C106.101 38.4672 106.876 38.2346 107.548 37.7696C108.116 37.3821 108.84 37.3563 109.434 37.6663C110.028 37.9763 110.416 38.5963 110.416 39.268V60.0129C110.364 60.9946 109.537 61.8213 108.555 61.8213Z" fill="#00FF85"/>
<path d="M11.4446 61.8213C10.437 61.8213 9.61033 60.9946 9.61033 59.9871V43.169C8.99031 43.324 8.34446 43.4273 7.67277 43.4273C3.46179 43.4273 0 39.9655 0 35.7287C0 31.4919 3.46179 28.0301 7.6986 28.0301C8.34446 28.0301 9.01615 28.1076 9.63617 28.2885V11.4445C9.63617 10.437 10.4629 9.61032 11.4704 9.61032H28.2885C28.1335 8.9903 28.0301 8.34444 28.0301 7.67275C28.0301 3.43594 31.4919 -0.0258484 35.7287 -0.0258484C39.9656 -0.0258484 43.4273 3.43594 43.4273 7.67275C43.4273 8.31861 43.3498 8.9903 43.169 9.61032H59.9871C60.9946 9.61032 61.8213 10.437 61.8213 11.4445V28.2626C62.4413 28.1076 63.0872 28.0043 63.7589 28.0043C67.9957 28.0043 71.4575 31.4661 71.4575 35.7029C71.4575 36.7104 70.6308 37.5371 69.6233 37.5371C68.6157 37.5371 67.789 36.7104 67.789 35.7029C67.789 33.4811 65.9806 31.6469 63.733 31.6469C62.7772 31.6469 61.873 31.9828 61.1496 32.577C60.6071 33.0161 59.8579 33.1195 59.2121 32.8353C58.5662 32.5253 58.1529 31.8794 58.1529 31.1819V13.2788H40.2239C39.5264 13.2788 38.8805 12.8654 38.5705 12.2196C38.2605 11.5737 38.3638 10.8245 38.8288 10.282C39.4489 9.53282 39.7589 8.65445 39.7589 7.69859C39.7589 5.47684 37.9505 3.64261 35.7029 3.64261C33.4812 3.64261 31.6469 5.45101 31.6469 7.69859C31.6469 8.65445 31.9828 9.55865 32.577 10.282C33.0161 10.8245 33.1195 11.5737 32.8353 12.2196C32.5253 12.8654 31.9053 13.2788 31.1819 13.2788H13.2788V31.2077C13.2788 31.9053 12.8654 32.5511 12.2196 32.8611C11.5737 33.1711 10.8245 33.0678 10.282 32.6028C9.55867 31.9828 8.65447 31.6728 7.6986 31.6728C5.47686 31.6728 3.64263 33.4811 3.64263 35.7287C3.64263 37.9505 5.45102 39.7847 7.6986 39.7847C8.65447 39.7847 9.55867 39.4489 10.282 38.8547C10.8245 38.3897 11.5737 38.3121 12.2196 38.5963C12.8654 38.9063 13.2788 39.5264 13.2788 40.2497V60.0129C13.2788 60.9946 12.4521 61.8213 11.4446 61.8213Z" fill="#4A4947"/>
<path d="M84.2713 120C80.0345 120 76.5727 116.538 76.5727 112.301C76.5727 111.656 76.6502 110.984 76.831 110.364H60.0129C59.0054 110.364 58.1787 109.537 58.1787 108.53C58.1787 107.522 59.0054 106.695 60.0129 106.695H79.7761C80.4736 106.695 81.1195 107.109 81.4295 107.755C81.7395 108.4 81.6362 109.15 81.1712 109.692C80.5512 110.415 80.2411 111.32 80.2411 112.276C80.2411 114.497 82.0495 116.332 84.2971 116.332C86.5189 116.332 88.3531 114.523 88.3531 112.276C88.3531 111.32 88.0172 110.415 87.4231 109.692C86.9839 109.15 86.8805 108.4 87.1647 107.755C87.4747 107.109 88.0948 106.695 88.8181 106.695H106.747V87.5005C106.747 86.803 107.16 86.1572 107.806 85.8471C108.452 85.5371 109.201 85.6405 109.744 86.1055C110.467 86.6997 111.397 87.0355 112.327 87.0355C114.549 87.0355 116.383 85.2271 116.383 82.9795C116.383 80.7578 114.575 78.9236 112.327 78.9236C111.371 78.9236 110.467 79.2594 109.744 79.8536C109.201 80.2928 108.452 80.3961 107.806 80.1119C107.16 79.8019 106.747 79.1819 106.747 78.4586V61.7955H99.8493C98.8418 61.7955 98.0151 60.9688 98.0151 59.9612C98.0151 58.9537 98.8418 58.127 99.8493 58.127H108.555C109.563 58.127 110.39 58.9537 110.39 59.9612V75.5393C111.01 75.3843 111.656 75.2809 112.327 75.2809C116.564 75.2809 120.026 78.7427 120.026 82.9795C120.026 87.2164 116.564 90.6781 112.327 90.6781C111.681 90.6781 111.01 90.6006 110.39 90.4198V108.504C110.39 109.511 109.563 110.338 108.555 110.338H91.7115C91.8665 110.958 91.9699 111.604 91.9699 112.276C91.9699 116.538 88.5081 120 84.2713 120Z" fill="#4A4947"/>
</g>
<defs>
<clipPath id="clip0_36_51">
<rect width="120" height="120" fill="white"/>
</clipPath>
</defs>
</svg>
