<svg width="62" height="63" viewBox="0 0 62 63" fill="none" xmlns="http://www.w3.org/2000/svg">
<mask id="path-1-inside-1_1_140" fill="white">
<path fill-rule="evenodd" clip-rule="evenodd" d="M41.2176 31.5L20.6089 10.8913L30.9132 0.587015L61.8261 31.4999L61.8256 31.5004L61.8257 31.5005L30.9128 62.4134L20.6085 52.1091L41.2176 31.5Z"/>
</mask>
<path d="M41.2176 31.5L41.9247 32.2071L42.6318 31.5L41.9247 30.7929L41.2176 31.5ZM20.6089 10.8913L19.9018 10.1842L19.1947 10.8913L19.9018 11.5984L20.6089 10.8913ZM30.9132 0.587015L31.6203 -0.120092L30.9132 -0.827199L30.2061 -0.120092L30.9132 0.587015ZM61.8261 31.4999L62.5332 32.207L63.2403 31.4999L62.5332 30.7928L61.8261 31.4999ZM61.8256 31.5004L61.1185 30.7933L60.4114 31.5004L61.1185 32.2075L61.8256 31.5004ZM61.8257 31.5005L62.5328 32.2076L63.2399 31.5005L62.5328 30.7934L61.8257 31.5005ZM30.9128 62.4134L30.2057 63.1205L30.9128 63.8276L31.6199 63.1205L30.9128 62.4134ZM20.6085 52.1091L19.9014 51.402L19.1943 52.1091L19.9014 52.8162L20.6085 52.1091ZM41.9247 30.7929L21.316 10.1842L19.9018 11.5984L40.5105 32.2071L41.9247 30.7929ZM21.316 11.5984L31.6203 1.29412L30.2061 -0.120092L19.9018 10.1842L21.316 11.5984ZM30.2061 1.29412L61.119 32.207L62.5332 30.7928L31.6203 -0.120092L30.2061 1.29412ZM61.119 30.7928L61.1185 30.7933L62.5327 32.2075L62.5332 32.207L61.119 30.7928ZM61.1185 32.2075L61.1186 32.2076L62.5328 30.7934L62.5327 30.7933L61.1185 32.2075ZM61.1186 30.7934L30.2057 61.7063L31.6199 63.1205L62.5328 32.2076L61.1186 30.7934ZM31.6199 61.7063L21.3156 51.402L19.9014 52.8162L30.2057 63.1205L31.6199 61.7063ZM21.3156 52.8162L41.9247 32.2071L40.5105 30.7929L19.9014 51.402L21.3156 52.8162Z" fill="#F0F0F0" mask="url(#path-1-inside-1_1_140)"/>
</svg>
